<svg width="177" height="40" viewBox="0 0 177 40" fill="none" xmlns="http://www.w3.org/2000/svg">
<path d="M8.556 25.4636C7.3973 25.4636 6.3523 25.2619 5.421 24.8586C4.497 24.4553 3.7343 23.8796 3.133 23.1316C2.539 22.3763 2.1613 21.4816 2 20.4476L4.75 20.0296C4.9847 20.9683 5.465 21.6943 6.191 22.2076C6.9243 22.7209 7.7677 22.9776 8.721 22.9776C9.2857 22.9776 9.8173 22.8896 10.316 22.7136C10.8147 22.5376 11.218 22.2809 11.526 21.9436C11.8413 21.6063 11.999 21.1919 11.999 20.7006C11.999 20.4806 11.9623 20.2789 11.889 20.0956C11.8157 19.9049 11.7057 19.7363 11.559 19.5896C11.4197 19.4429 11.2363 19.3109 11.009 19.1936C10.789 19.0689 10.5323 18.9626 10.239 18.8746L6.147 17.6646C5.795 17.5619 5.4137 17.4263 5.003 17.2576C4.5997 17.0816 4.2147 16.8433 3.848 16.5426C3.4887 16.2346 3.1917 15.8459 2.957 15.3766C2.7297 14.8999 2.616 14.3133 2.616 13.6166C2.616 12.5973 2.8727 11.7429 3.386 11.0536C3.9067 10.3569 4.6033 9.83628 5.476 9.49158C6.356 9.14688 7.3313 8.97828 8.402 8.98558C9.4873 8.99288 10.4553 9.17988 11.306 9.54658C12.1567 9.90588 12.868 10.4303 13.44 11.1196C14.012 11.8089 14.4153 12.6413 14.65 13.6166L11.801 14.1116C11.6837 13.5543 11.4563 13.0813 11.119 12.6926C10.789 12.2966 10.382 11.9959 9.898 11.7906C9.4213 11.5853 8.9117 11.4753 8.369 11.4606C7.841 11.4533 7.3497 11.5339 6.895 11.7026C6.4477 11.8639 6.0847 12.0986 5.806 12.4066C5.5347 12.7146 5.399 13.0739 5.399 13.4846C5.399 13.8733 5.5163 14.1923 5.751 14.4416C5.9857 14.6836 6.2753 14.8779 6.62 15.0246C6.972 15.1639 7.3277 15.2813 7.687 15.3766L10.525 16.1686C10.9137 16.2713 11.35 16.4106 11.834 16.5866C12.318 16.7626 12.7837 17.0083 13.231 17.3236C13.6783 17.6389 14.045 18.0533 14.331 18.5666C14.6243 19.0799 14.771 19.7326 14.771 20.5246C14.771 21.3459 14.5987 22.0683 14.254 22.6916C13.9167 23.3076 13.4583 23.8209 12.879 24.2316C12.2997 24.6423 11.636 24.9503 10.888 25.1556C10.1473 25.3609 9.37 25.4636 8.556 25.4636ZM22.641 25.4636C21.4823 25.4636 20.5107 25.1886 19.726 24.6386C18.9413 24.0886 18.351 23.3406 17.955 22.3946C17.559 21.4413 17.361 20.3743 17.361 19.1936C17.361 17.9983 17.559 16.9276 17.955 15.9816C18.351 15.0356 18.9303 14.2913 19.693 13.7486C20.463 13.1986 21.4127 12.9236 22.542 12.9236C23.664 12.9236 24.6357 13.1986 25.457 13.7486C26.2857 14.2913 26.9273 15.0356 27.382 15.9816C27.8367 16.9203 28.064 17.9909 28.064 19.1936C28.064 20.3816 27.8403 21.4486 27.393 22.3946C26.9457 23.3406 26.315 24.0886 25.501 24.6386C24.687 25.1886 23.7337 25.4636 22.641 25.4636ZM16.91 30.4136V13.2536H19.253V21.5916H19.583V30.4136H16.91ZM22.234 23.0876C22.9233 23.0876 23.4917 22.9153 23.939 22.5706C24.3863 22.2259 24.7163 21.7603 24.929 21.1736C25.149 20.5796 25.259 19.9196 25.259 19.1936C25.259 18.4749 25.149 17.8223 24.929 17.2356C24.709 16.6416 24.368 16.1723 23.906 15.8276C23.444 15.4756 22.8573 15.2996 22.146 15.2996C21.4713 15.2996 20.9213 15.4646 20.496 15.7946C20.0707 16.1173 19.7553 16.5719 19.55 17.1586C19.352 17.7379 19.253 18.4163 19.253 19.1936C19.253 19.9636 19.352 20.6419 19.55 21.2286C19.7553 21.8153 20.0743 22.2736 20.507 22.6036C20.947 22.9263 21.5227 23.0876 22.234 23.0876ZM30.4886 11.4496V9.01858H33.1396V11.4496H30.4886ZM30.4886 25.1336V13.2536H33.1396V25.1336H30.4886ZM36.1926 25.1336L36.2146 9.29358H38.8986V18.9736L43.2436 13.2536H46.5546L41.9456 19.1936L46.9506 25.1336H43.4416L38.8986 19.4136V25.1336H36.1926ZM53.0187 25.4636C51.816 25.4636 50.76 25.2033 49.8507 24.6826C48.9414 24.1619 48.23 23.4396 47.7167 22.5156C47.2107 21.5916 46.9577 20.5283 46.9577 19.3256C46.9577 18.0276 47.207 16.9019 47.7057 15.9486C48.2044 14.9879 48.8974 14.2436 49.7847 13.7156C50.672 13.1876 51.6987 12.9236 52.8647 12.9236C54.097 12.9236 55.142 13.2133 56 13.7926C56.865 14.3646 57.507 15.1749 57.925 16.2236C58.343 17.2723 58.5 18.5079 58.398 19.9306H55.769V18.9626C55.761 17.6719 55.534 16.7296 55.087 16.1356C54.639 15.5416 53.935 15.2446 52.9747 15.2446C51.8894 15.2446 51.0827 15.5819 50.5547 16.2566C50.0267 16.9239 49.7627 17.9029 49.7627 19.1936C49.7627 20.3963 50.0267 21.3276 50.5547 21.9876C51.0827 22.6476 51.8527 22.9776 52.8647 22.9776C53.517 22.9776 54.078 22.8346 54.548 22.5486C55.024 22.2553 55.391 21.8336 55.648 21.2836L58.266 22.0756C57.811 23.1463 57.107 23.9786 56.154 24.5726C55.208 25.1666 54.163 25.4636 53.0187 25.4636ZM48.9267 19.9306V17.9286H57.1V19.9306H48.9267ZM63.716 25.1336L68.71 9.29358H72.593L77.587 25.1336H74.859L70.327 10.9216H70.921L66.444 25.1336H63.716ZM66.499 21.7016V19.2266H74.815V21.7016H66.499ZM84.119 25.4636C83.026 25.4636 82.073 25.1886 81.259 24.6386C80.445 24.0886 79.814 23.3406 79.367 22.3946C78.92 21.4486 78.696 20.3816 78.696 19.1936C78.696 17.9909 78.92 16.9203 79.367 15.9816C79.822 15.0356 80.463 14.2913 81.292 13.7486C82.121 13.1986 83.096 12.9236 84.218 12.9236C85.347 12.9236 86.293 13.1986 87.056 13.7486C87.826 14.2913 88.409 15.0356 88.805 15.9816C89.201 16.9276 89.399 17.9983 89.399 19.1936C89.399 20.3743 89.201 21.4413 88.805 22.3946C88.409 23.3406 87.819 24.0886 87.034 24.6386C86.249 25.1886 85.278 25.4636 84.119 25.4636ZM84.526 23.0876C85.237 23.0876 85.809 22.9263 86.242 22.6036C86.682 22.2736 87.001 21.8153 87.199 21.2286C87.404 20.6419 87.507 19.9636 87.507 19.1936C87.507 18.4163 87.404 17.7379 87.199 17.1586C87.001 16.5719 86.689 16.1173 86.264 15.7946C85.839 15.4646 85.289 15.2996 84.614 15.2996C83.903 15.2996 83.316 15.4756 82.854 15.8276C82.392 16.1723 82.051 16.6416 81.831 17.2356C81.611 17.8223 81.501 18.4749 81.501 19.1936C81.501 19.9196 81.607 20.5796 81.82 21.1736C82.04 21.7603 82.374 22.2259 82.821 22.5706C83.268 22.9153 83.837 23.0876 84.526 23.0876ZM87.507 25.1336V16.7956H87.177V9.29358H89.85V25.1336H87.507ZM106.981 25.1336V17.9176C106.981 17.1036 106.78 16.4693 106.376 16.0146C105.973 15.5526 105.427 15.3216 104.737 15.3216C104.312 15.3216 103.931 15.4206 103.593 15.6186C103.256 15.8093 102.988 16.0953 102.79 16.4766C102.592 16.8506 102.493 17.2979 102.493 17.8186L101.316 17.1256C101.309 16.3043 101.492 15.5819 101.866 14.9586C102.248 14.3279 102.761 13.8366 103.406 13.4846C104.052 13.1326 104.77 12.9566 105.562 12.9566C106.875 12.9566 107.88 13.3526 108.576 14.1446C109.28 14.9293 109.632 15.9633 109.632 17.2466V25.1336H106.981ZM92.692 25.1336V13.2536H95.035V16.9386H95.365V25.1336H92.692ZM99.853 25.1336V17.9506C99.853 17.1219 99.652 16.4766 99.248 16.0146C98.845 15.5526 98.295 15.3216 97.598 15.3216C96.924 15.3216 96.381 15.5526 95.97 16.0146C95.567 16.4766 95.365 17.0779 95.365 17.8186L94.177 17.0266C94.177 16.2566 94.368 15.5636 94.749 14.9476C95.131 14.3316 95.644 13.8476 96.289 13.4956C96.942 13.1363 97.672 12.9566 98.478 12.9566C99.366 12.9566 100.106 13.1473 100.7 13.5286C101.302 13.9026 101.749 14.4159 102.042 15.0686C102.343 15.7139 102.493 16.4436 102.493 17.2576V25.1336H99.853ZM112.501 11.4496V9.01858H115.152V11.4496H112.501ZM112.501 25.1336V13.2536H115.152V25.1336H112.501ZM126.444 25.1336V19.4136C126.444 19.0396 126.419 18.6253 126.367 18.1706C126.316 17.7159 126.195 17.2796 126.004 16.8616C125.821 16.4363 125.542 16.0879 125.168 15.8166C124.802 15.5453 124.303 15.4096 123.672 15.4096C123.335 15.4096 123.001 15.4646 122.671 15.5746C122.341 15.6846 122.041 15.8753 121.769 16.1466C121.505 16.4106 121.293 16.7773 121.131 17.2466C120.97 17.7086 120.889 18.3026 120.889 19.0286L119.316 18.3576C119.316 17.3456 119.511 16.4289 119.899 15.6076C120.295 14.7863 120.875 14.1336 121.637 13.6496C122.4 13.1583 123.339 12.9126 124.453 12.9126C125.333 12.9126 126.059 13.0593 126.631 13.3526C127.203 13.6459 127.658 14.0199 127.995 14.4746C128.333 14.9293 128.582 15.4133 128.743 15.9266C128.905 16.4399 129.007 16.9276 129.051 17.3896C129.103 17.8443 129.128 18.2146 129.128 18.5006V25.1336H126.444ZM118.205 25.1336V13.2536H120.57V16.9386H120.889V25.1336H118.205Z" fill="white"/>
<path d="M155.642 28.6247C153.591 29.8956 152.008 29.2246 150.66 27.456C150.349 27.048 149.936 26.7176 149.57 26.3515C147.747 24.5287 147.694 24.2433 148.808 21.817C150.565 18.3132 152.261 14.9299 153.956 11.5466C155.656 9.07438 157.536 6.78628 160.197 5.26256C164.042 3.06148 168.16 2.59828 172.46 3.30783C173.41 3.46462 174.026 4.08332 174.175 5.03266C175.335 12.4537 173.034 19.0205 166.022 23.381C165.217 23.8487 164.552 24.2949 163.84 24.6459C161.116 25.9888 158.376 27.301 155.642 28.6247ZM164.001 9.84507C163.297 11.206 163.424 12.4195 164.36 13.2588C165.254 14.0614 166.657 14.1446 167.63 13.4527C168.839 12.5926 169.09 10.9256 168.183 9.77577C167.154 8.47178 165.464 8.44803 164.001 9.84507Z" fill="#0085DB"/>
<path fill-rule="evenodd" clip-rule="evenodd" d="M148.811 21.7395C150.566 18.3134 152.261 14.9302 153.859 11.5391C153.249 11.5364 152.652 11.5385 152.062 11.5405C151.017 11.5442 149.996 11.5478 148.977 11.5242C147.1 11.4806 145.694 12.2806 144.723 13.8385C143.606 15.632 142.512 17.4416 141.466 19.2776C140.671 20.6731 141.326 21.7621 142.926 21.7772C144.868 21.7956 146.81 21.782 148.811 21.7395ZM161.846 25.6247C159.781 26.6353 157.711 27.6483 155.649 28.7252C155.652 29.4194 155.651 30.1013 155.65 30.7752C155.647 32.0172 155.645 33.2319 155.67 34.446C155.704 36.0845 156.922 36.8724 158.238 36.1005C160.061 35.0309 161.868 33.9296 163.637 32.7737C164.932 31.9275 165.85 30.7748 165.904 29.1329C165.965 27.2301 166.001 25.3265 165.976 23.4348C165.661 23.6071 165.361 23.7849 165.068 23.9592C164.656 24.2037 164.256 24.4411 163.84 24.646C163.176 24.9734 162.511 25.2989 161.846 25.6247Z" fill="#5AC8FA"/>
</svg>
