<svg width="178" height="40" viewBox="0 0 178 40" fill="none" xmlns="http://www.w3.org/2000/svg">
<path d="M17.8476 28.958C15.797 30.2289 14.214 29.5579 12.8659 27.7893C12.5548 27.3813 12.1418 27.0509 11.7757 26.6848C9.95296 24.862 9.8997 24.5766 11.014 22.1503C12.7711 18.6465 14.4663 15.2632 16.1614 11.8799C17.8616 9.40771 19.7414 7.11961 22.4029 5.59589C26.2475 3.39481 30.3654 2.93161 34.6656 3.64116C35.6158 3.79795 36.232 4.41665 36.3804 5.36599C37.5411 12.787 35.2401 19.3538 28.2277 23.7143C27.423 24.182 26.7579 24.6282 26.0458 24.9792C23.3212 26.3221 20.5816 27.6343 17.8476 28.958ZM26.2069 10.1784C25.5025 11.5393 25.6299 12.7528 26.5652 13.5921C27.4596 14.3947 28.8629 14.4779 29.8357 13.786C31.0451 12.9259 31.2958 11.2589 30.3886 10.1091C29.3599 8.80511 27.6693 8.78136 26.2069 10.1784Z" fill="#0085DB"/>
<path fill-rule="evenodd" clip-rule="evenodd" d="M11.0169 22.0726C12.7711 18.6465 14.4662 15.2633 16.0649 11.8722C15.4548 11.8695 14.857 11.8716 14.2673 11.8736C13.222 11.8773 12.2019 11.8809 11.1824 11.8573C9.30554 11.8137 7.89898 12.6137 6.92847 14.1716C5.81118 15.9651 4.71712 17.7747 3.67143 19.6107C2.87657 21.0062 3.53139 22.0952 5.13106 22.1103C7.07316 22.1287 9.01556 22.1151 11.0169 22.0726ZM24.051 25.9578C21.9863 26.9684 19.9168 27.9814 17.8546 29.0583C17.8577 29.7525 17.8563 30.4344 17.855 31.1083C17.8525 32.3503 17.8501 33.565 17.8755 34.7791C17.9098 36.4176 19.1276 37.2055 20.4432 36.4336C22.2662 35.364 24.073 34.2627 25.8422 33.1068C27.1374 32.2606 28.0557 31.1079 28.1091 29.466C28.1708 27.5632 28.2066 25.6596 28.1817 23.7679C27.866 23.9402 27.5665 24.118 27.2731 24.2923C26.8613 24.5368 26.4615 24.7742 26.0458 24.9791C25.3816 25.3065 24.7166 25.632 24.051 25.9578Z" fill="#5AC8FA"/>
<path d="M55.403 28.33C54.2443 28.33 53.1993 28.1283 52.268 27.725C51.344 27.3217 50.5813 26.746 49.98 25.998C49.386 25.2427 49.0083 24.348 48.847 23.314L51.597 22.896C51.8317 23.8347 52.312 24.5607 53.038 25.074C53.7713 25.5873 54.6147 25.844 55.568 25.844C56.1327 25.844 56.6643 25.756 57.163 25.58C57.6617 25.404 58.065 25.1473 58.373 24.81C58.6883 24.4727 58.846 24.0583 58.846 23.567C58.846 23.347 58.8093 23.1453 58.736 22.962C58.6627 22.7713 58.5527 22.6027 58.406 22.456C58.2667 22.3093 58.0833 22.1773 57.856 22.06C57.636 21.9353 57.3793 21.829 57.086 21.741L52.994 20.531C52.642 20.4283 52.2607 20.2927 51.85 20.124C51.4467 19.948 51.0617 19.7097 50.695 19.409C50.3357 19.101 50.0387 18.7123 49.804 18.243C49.5767 17.7663 49.463 17.1797 49.463 16.483C49.463 15.4637 49.7197 14.6093 50.233 13.92C50.7537 13.2233 51.4503 12.7027 52.323 12.358C53.203 12.0133 54.1783 11.8447 55.249 11.852C56.3343 11.8593 57.3023 12.0463 58.153 12.413C59.0037 12.7723 59.715 13.2967 60.287 13.986C60.859 14.6753 61.2623 15.5077 61.497 16.483L58.648 16.978C58.5307 16.4207 58.3033 15.9477 57.966 15.559C57.636 15.163 57.229 14.8623 56.745 14.657C56.2683 14.4517 55.7587 14.3417 55.216 14.327C54.688 14.3197 54.1967 14.4003 53.742 14.569C53.2947 14.7303 52.9317 14.965 52.653 15.273C52.3817 15.581 52.246 15.9403 52.246 16.351C52.246 16.7397 52.3633 17.0587 52.598 17.308C52.8327 17.55 53.1223 17.7443 53.467 17.891C53.819 18.0303 54.1747 18.1477 54.534 18.243L57.372 19.035C57.7607 19.1377 58.197 19.277 58.681 19.453C59.165 19.629 59.6307 19.8747 60.078 20.19C60.5253 20.5053 60.892 20.9197 61.178 21.433C61.4713 21.9463 61.618 22.599 61.618 23.391C61.618 24.2123 61.4457 24.9347 61.101 25.558C60.7637 26.174 60.3053 26.6873 59.726 27.098C59.1467 27.5087 58.483 27.8167 57.735 28.022C56.9943 28.2273 56.217 28.33 55.403 28.33ZM69.488 28.33C68.3293 28.33 67.3577 28.055 66.573 27.505C65.7883 26.955 65.198 26.207 64.802 25.261C64.406 24.3077 64.208 23.2407 64.208 22.06C64.208 20.8647 64.406 19.794 64.802 18.848C65.198 17.902 65.7773 17.1577 66.54 16.615C67.31 16.065 68.2597 15.79 69.389 15.79C70.511 15.79 71.4827 16.065 72.304 16.615C73.1327 17.1577 73.7743 17.902 74.229 18.848C74.6837 19.7867 74.911 20.8573 74.911 22.06C74.911 23.248 74.6873 24.315 74.24 25.261C73.7927 26.207 73.162 26.955 72.348 27.505C71.534 28.055 70.5807 28.33 69.488 28.33ZM63.757 33.28V16.12H66.1V24.458H66.43V33.28H63.757ZM69.081 25.954C69.7703 25.954 70.3387 25.7817 70.786 25.437C71.2333 25.0923 71.5633 24.6267 71.776 24.04C71.996 23.446 72.106 22.786 72.106 22.06C72.106 21.3413 71.996 20.6887 71.776 20.102C71.556 19.508 71.215 19.0387 70.753 18.694C70.291 18.342 69.7043 18.166 68.993 18.166C68.3183 18.166 67.7683 18.331 67.343 18.661C66.9177 18.9837 66.6023 19.4383 66.397 20.025C66.199 20.6043 66.1 21.2827 66.1 22.06C66.1 22.83 66.199 23.5083 66.397 24.095C66.6023 24.6817 66.9213 25.14 67.354 25.47C67.794 25.7927 68.3697 25.954 69.081 25.954ZM77.3356 14.316V11.885H79.9866V14.316H77.3356ZM77.3356 28V16.12H79.9866V28H77.3356ZM83.0396 28L83.0616 12.16H85.7456V21.84L90.0906 16.12H93.4016L88.7926 22.06L93.7976 28H90.2886L85.7456 22.28V28H83.0396ZM99.8657 28.33C98.663 28.33 97.607 28.0697 96.6977 27.549C95.7884 27.0283 95.077 26.306 94.5637 25.382C94.0577 24.458 93.8047 23.3947 93.8047 22.192C93.8047 20.894 94.054 19.7683 94.5527 18.815C95.0514 17.8543 95.7444 17.11 96.6317 16.582C97.519 16.054 98.5457 15.79 99.7117 15.79C100.944 15.79 101.989 16.0797 102.847 16.659C103.712 17.231 104.354 18.0413 104.772 19.09C105.19 20.1387 105.347 21.3743 105.245 22.797H102.616V21.829C102.608 20.5383 102.381 19.596 101.934 19.002C101.486 18.408 100.782 18.111 99.8217 18.111C98.7364 18.111 97.9297 18.4483 97.4017 19.123C96.8737 19.7903 96.6097 20.7693 96.6097 22.06C96.6097 23.2627 96.8737 24.194 97.4017 24.854C97.9297 25.514 98.6997 25.844 99.7117 25.844C100.364 25.844 100.925 25.701 101.395 25.415C101.871 25.1217 102.238 24.7 102.495 24.15L105.113 24.942C104.658 26.0127 103.954 26.845 103.001 27.439C102.055 28.033 101.01 28.33 99.8657 28.33ZM95.7737 22.797V20.795H103.947V22.797H95.7737ZM110.563 28L115.557 12.16H119.44L124.434 28H121.706L117.174 13.788H117.768L113.291 28H110.563ZM113.346 24.568V22.093H121.662V24.568H113.346ZM130.966 28.33C129.873 28.33 128.92 28.055 128.106 27.505C127.292 26.955 126.661 26.207 126.214 25.261C125.767 24.315 125.543 23.248 125.543 22.06C125.543 20.8573 125.767 19.7867 126.214 18.848C126.669 17.902 127.31 17.1577 128.139 16.615C128.968 16.065 129.943 15.79 131.065 15.79C132.194 15.79 133.14 16.065 133.903 16.615C134.673 17.1577 135.256 17.902 135.652 18.848C136.048 19.794 136.246 20.8647 136.246 22.06C136.246 23.2407 136.048 24.3077 135.652 25.261C135.256 26.207 134.666 26.955 133.881 27.505C133.096 28.055 132.125 28.33 130.966 28.33ZM131.373 25.954C132.084 25.954 132.656 25.7927 133.089 25.47C133.529 25.14 133.848 24.6817 134.046 24.095C134.251 23.5083 134.354 22.83 134.354 22.06C134.354 21.2827 134.251 20.6043 134.046 20.025C133.848 19.4383 133.536 18.9837 133.111 18.661C132.686 18.331 132.136 18.166 131.461 18.166C130.75 18.166 130.163 18.342 129.701 18.694C129.239 19.0387 128.898 19.508 128.678 20.102C128.458 20.6887 128.348 21.3413 128.348 22.06C128.348 22.786 128.454 23.446 128.667 24.04C128.887 24.6267 129.221 25.0923 129.668 25.437C130.115 25.7817 130.684 25.954 131.373 25.954ZM134.354 28V19.662H134.024V12.16H136.697V28H134.354ZM153.828 28V20.784C153.828 19.97 153.627 19.3357 153.223 18.881C152.82 18.419 152.274 18.188 151.584 18.188C151.159 18.188 150.778 18.287 150.44 18.485C150.103 18.6757 149.835 18.9617 149.637 19.343C149.439 19.717 149.34 20.1643 149.34 20.685L148.163 19.992C148.156 19.1707 148.339 18.4483 148.713 17.825C149.095 17.1943 149.608 16.703 150.253 16.351C150.899 15.999 151.617 15.823 152.409 15.823C153.722 15.823 154.727 16.219 155.423 17.011C156.127 17.7957 156.479 18.8297 156.479 20.113V28H153.828ZM139.539 28V16.12H141.882V19.805H142.212V28H139.539ZM146.7 28V20.817C146.7 19.9883 146.499 19.343 146.095 18.881C145.692 18.419 145.142 18.188 144.445 18.188C143.771 18.188 143.228 18.419 142.817 18.881C142.414 19.343 142.212 19.9443 142.212 20.685L141.024 19.893C141.024 19.123 141.215 18.43 141.596 17.814C141.978 17.198 142.491 16.714 143.136 16.362C143.789 16.0027 144.519 15.823 145.325 15.823C146.213 15.823 146.953 16.0137 147.547 16.395C148.149 16.769 148.596 17.2823 148.889 17.935C149.19 18.5803 149.34 19.31 149.34 20.124V28H146.7ZM159.348 14.316V11.885H161.999V14.316H159.348ZM159.348 28V16.12H161.999V28H159.348ZM173.291 28V22.28C173.291 21.906 173.266 21.4917 173.214 21.037C173.163 20.5823 173.042 20.146 172.851 19.728C172.668 19.3027 172.389 18.9543 172.015 18.683C171.649 18.4117 171.15 18.276 170.519 18.276C170.182 18.276 169.848 18.331 169.518 18.441C169.188 18.551 168.888 18.7417 168.616 19.013C168.352 19.277 168.14 19.6437 167.978 20.113C167.817 20.575 167.736 21.169 167.736 21.895L166.163 21.224C166.163 20.212 166.358 19.2953 166.746 18.474C167.142 17.6527 167.722 17 168.484 16.516C169.247 16.0247 170.186 15.779 171.3 15.779C172.18 15.779 172.906 15.9257 173.478 16.219C174.05 16.5123 174.505 16.8863 174.842 17.341C175.18 17.7957 175.429 18.2797 175.59 18.793C175.752 19.3063 175.854 19.794 175.898 20.256C175.95 20.7107 175.975 21.081 175.975 21.367V28H173.291ZM165.052 28V16.12H167.417V19.805H167.736V28H165.052Z" fill="white"/>
</svg>
